/* XPM */
static char *_b95514b6dcf47fbeed703961fe432fe[] = {
/* columns rows colors chars-per-pixel */
"32 32 171 2 ",
"   c #989B9E",
".  c #999B9E",
"X  c #999C9F",
"o  c #9A9C9F",
"O  c #9B9DA0",
"+  c #9C9EA1",
"@  c #9C9FA2",
"#  c #9D9FA2",
"$  c #9FA1A4",
"%  c #9FA2A5",
"&  c #A0A2A5",
"*  c #A1A3A5",
"=  c #A3A6A9",
"-  c #A4A6A9",
";  c #A5A7A9",
":  c #A6A8AA",
">  c #A8AAAC",
",  c #AAACAE",
"<  c #ABADAF",
"1  c #ABAEB0",
"2  c #ADAFB1",
"3  c #B0B2B4",
"4  c #B3B5B7",
"5  c #B8BABC",
"6  c #B9BBBD",
"7  c #BABBBD",
"8  c #BDBEC0",
"9  c #BDBFC0",
"0  c #BEC0C2",
"q  c #BFC1C2",
"w  c #C0C2C4",
"e  c #C1C2C4",
"r  c #C1C3C5",
"t  c #C2C3C5",
"y  c #C2C4C6",
"u  c #C2C5C6",
"i  c #C4C5C7",
"p  c #C6C6C6",
"a  c gray78",
"s  c #C5C5C8",
"d  c #C5C7C9",
"f  c #C6C6C8",
"g  c #C6C6C9",
"h  c #C7C7C9",
"j  c #C6C6CA",
"k  c #C7C7CA",
"l  c #C6C8CA",
"z  c #C7C9CA",
"x  c #C8C8C8",
"c  c gray79",
"v  c #C8C8CB",
"b  c #C9C9CB",
"n  c #CACACA",
"m  c #CBCBCB",
"M  c #C9CACC",
"N  c #C9CBCD",
"B  c #CACCCD",
"V  c #CBCDCE",
"C  c gray80",
"Z  c #CDCDCD",
"A  c #CCCDCF",
"S  c #CDCDCF",
"D  c #CECECE",
"F  c gray81",
"G  c #CDCDD0",
"H  c #CECFD1",
"J  c #CFCFD1",
"K  c #CED0D1",
"L  c #D0D0D0",
"P  c gray82",
"I  c #D0D0D2",
"U  c #D0D1D2",
"Y  c #D1D2D3",
"T  c #D2D2D2",
"R  c LightGray",
"E  c #D1D2D4",
"W  c #D2D3D4",
"Q  c #D2D3D5",
"!  c #D2D4D5",
"~  c #D3D5D6",
"^  c gray83",
"/  c #D5D5D5",
"(  c #D4D5D7",
")  c #D5D6D7",
"_  c gray84",
"`  c #D7D7D7",
"'  c #D5D6D8",
"]  c #D6D8D9",
"[  c #D8D8D8",
"{  c gray85",
"}  c #D9D9DA",
"|  c #D8DADB",
" . c #DADADA",
".. c gray86",
"X. c #D9DADC",
"o. c #D9DBDC",
"O. c #DADBDC",
"+. c #DADBDD",
"@. c #DBDCDD",
"#. c gainsboro",
"$. c #DDDDDD",
"%. c #DCDDDE",
"&. c #DCDEDF",
"*. c #DDDEDF",
"=. c gray87",
"-. c #DFDFDF",
";. c #DFE0E1",
":. c gray88",
">. c #E1E1E1",
",. c #E0E1E2",
"<. c #E1E2E3",
"1. c #E2E2E2",
"2. c gray89",
"3. c #E2E3E4",
"4. c #E3E4E5",
"5. c #E4E4E4",
"6. c gray90",
"7. c #E4E5E6",
"8. c #E5E5E6",
"9. c #E4E6E6",
"0. c #E5E6E7",
"q. c #E6E6E6",
"w. c #E6E6E7",
"e. c #E7E7E7",
"r. c #E6E7E8",
"t. c #E7E7E8",
"y. c #E7E8E9",
"u. c gray91",
"i. c #E8E8E9",
"p. c #E8E9E9",
"a. c #E9E9E9",
"s. c #E8E9EA",
"d. c #E9E9EA",
"f. c #E9EAEA",
"g. c #E9EAEB",
"h. c #EAEAEA",
"j. c gray92",
"k. c #EAEBEC",
"l. c #EBEBEC",
"z. c #ECECEC",
"x. c #ECEDED",
"c. c gray93",
"v. c #ECEDEE",
"b. c #EDEDEE",
"n. c #EDEEEE",
"m. c #EEEEEE",
"M. c #EFEFEF",
"N. c #EFF0F0",
"B. c gray94",
"V. c #F0F0F1",
"C. c #F1F1F1",
"Z. c #F1F1F2",
"A. c #F1F2F2",
"S. c gray95",
"D. c #F2F3F3",
"F. c #F3F4F4",
"G. c #F4F4F4",
"H. c #F4F4F5",
"J. c gray96",
"K. c #F6F6F6",
"L. c gray97",
"P. c #F8F8F8",
"I. c #F8F9F9",
"U. c #F9F9F9",
"Y. c #F9FAFA",
"T. c gray98",
"R. c #FAFAFB",
"E. c #FBFBFB",
"W. c gray99",
"Q. c #FDFDFD",
"!. c None",
/* pixels */
"!.!.!.!.!.!.!.!.!.!.!.!.e.<.<.<.>.>.-.$.!.!.!.!.!.!.!.!.!.!.!.!.",
"!.!.!.!.!.!.!.!.!.j.e.$.$.$.$.-.1.5.5.e.e.-...!.!.!.!.!.!.!.!.!.",
"!.!.!.!.!.!.!.m.<.../ / ..$.$.<.<.e.e.e.j.j.j.-./ !.!.!.!.!.!.!.",
"!.!.!.!.!.!.j.../ / / ..!.!.!.!.!.!.!.!.0.j.m.m.e...!.!.!.!.!.!.",
"!.!.!.!.!.e./ P P / !.!.!.!.!.<.> !.!.!.!.!.m.M.Z.m...!.!.!.!.!.",
"!.!.!.!.j.P F F !.!.!.!.!.!.!.e P !.!.!.!.!.!.!.Z.Z.Z...!.!.!.!.",
"!.!.!.m.P m F !.!.!.!.!.!.!.E ; l.e !.!.!.!.!.!.!.Z.K.B./ !.!.!.",
"!.!.K./ m F !.!.!.!.!.!.!.l.2 O e.l.% !.!.!.!.!.!.!.K.I.j.F !.!.",
"!.!.e.a m !.!.!.!.!.!.!.!.z O !.!.D.K !.!.!.!.!.!.!.!.P.I.-.!.!.",
"!.K.P a m !.!.!.!.!.!.!.3.: O M M e.Z.1 !.!.!.!.!.!.!.K.I.Z.F !.",
"!.e.m a !.!.!.!.!.!.!.!.8 . !.X.H !.Z.X.!.!.!.!.!.!.!.!.I.I.$.!.",
"!...a a !.!.!.!.!.!.!...* + E j.H d $.K.5 !.!.!.!.!.!.!.K.W.j.!.",
"K.F a !.!.!.!.!.!.!.!.4 . !.3.K.J j j m.e.  !.!.!.!.!.!.G.W.G.F ",
"m.a a !.!.!.!.!.!.!.H + * ' Z.I.J d d !.Z.d !.!.!.!.!.!.!.W.I.R ",
"j.a a !.!.!.!.!.!.y., . a 0.R.R.J a j j y.m.; !.!.!.!.!.!.I.Q...",
"e.a a !.!.!.!.!.!.a O !.| D.Q.D.' m j j !.Z.E !.!.!.!.!.!.I.W...",
"e.a a !.!.!.!.!.;.= O B j.P.v.4.<.X.H d d ;.Z.3 !.!.!.!.!.I.Q.X.",
"j.a a !.!.!.!.!.5 . !.%.y.;.%.%.$.$.X.J v M m.$.!.!.!.!.!.R.Q...",
"m.a a !.!.!.!./ * + e l y e e y i e e e 0 8 ' D.8 !.!.!.!.I.I./ ",
"Z.F d !.!.!.!.3 O !.!.!.!.!.!.!.!.!.!.!.!.!.!.y.0.# !.!.K.W.G.F ",
"!.[ a a !.!.F , y ! | X.-.-.3.0.y.l.m.N.D.K.K.D.I.B !.!.K.Q.j.!.",
"!.e.a x !.<.5 0 d z B B K P ! ( | X.%.$.-.3.e.0.j.$.o !.I.I.$.!.",
"!.J.P x M !.!.!.!.!.!.!.!.!.!.!.!.!.!.!.!.!.!.!.!.!.!.j.I.Z.F !.",
"!.!.<.m m !.!.!.!.!.!.!.!.!.!.!.!.!.!.!.!.!.!.!.!.!.!.I.I.-.!.!.",
"!.!.K./ m F !.!.!.!.!.!.!.!.!.!.!.!.!.!.!.!.!.!.!.!.J.P.j.F !.!.",
"!.!.!.m.P m F !.!.!.!.!.!.!.!.!.!.!.!.!.!.!.!.!.!.Z.K.Z./ !.!.!.",
"!.!.!.!.e.P F F !.!.!.!.!.!.!.!.!.!.!.!.!.!.!.!.Z.J.Z...!.!.!.!.",
"!.!.!.!.!.e./ F P / !.!.!.!.!.!.!.!.!.!.!.!.m.N.Z.m.$.!.!.!.!.!.",
"!.!.!.!.!.!.j...R R _ _ !.!.!.!.!.!.!.!.j.j.m.Z.e...!.!.!.!.!.!.",
"!.!.!.!.!.!.!.m.<..._ ..#.#.-.-.<.5.e.j.j.j.y.$./ !.!.!.!.!.!.!.",
"!.!.!.!.!.!.!.!.!.j.1.$.$.$.-.-.1.1.e.1.e.$...!.!.!.!.!.!.!.!.!.",
"!.!.!.!.!.!.!.!.!.!.!.!.e.1.1.<.<.<.$.$.!.!.!.!.!.!.!.!.!.!.!.!."
};
