/* XPM */
static char *a99c9c2f795840c6ce63773fa449183f[] = {
/* columns rows colors chars-per-pixel */
"16 16 77 1 ",
"  c #A8AAAD",
". c #A9ABAE",
"X c #ABACAF",
"o c #ACADB0",
"O c #B2B4B6",
"+ c #B7B9BB",
"@ c #B8B9BB",
"# c #B8BABC",
"$ c #B9BABC",
"% c #BCBDBF",
"& c #BEBFC1",
"* c #C0C1C3",
"= c #C0C2C4",
"- c #C1C3C5",
"; c #C2C4C5",
": c #C2C4C6",
"> c #C3C5C7",
", c #C6C6C6",
"< c #C5C6C8",
"1 c #C7C7C8",
"2 c #C7C7CA",
"3 c gray79",
"4 c #CACACA",
"5 c #CBCCCE",
"6 c #CCCECF",
"7 c #CDCED0",
"8 c #CECED1",
"9 c #CED0D1",
"0 c #D0D0D0",
"q c #D0D1D2",
"w c #D0D1D3",
"e c #D1D1D3",
"r c #D2D2D2",
"t c LightGray",
"y c #D1D2D4",
"u c #D2D3D4",
"i c #D5D5D5",
"p c #D4D6D7",
"a c #D5D6D7",
"s c #D6D7D8",
"d c #D8D8D8",
"f c gray85",
"g c #D9DADB",
"h c #DADADA",
"j c gray86",
"k c #D9DADC",
"l c #DADBDC",
"z c #DDDDDD",
"x c #DDDEDF",
"c c #DFDFDF",
"v c gray88",
"b c #E1E1E1",
"n c #E0E1E2",
"m c #E1E2E3",
"M c #E2E2E2",
"N c gray89",
"B c #E2E3E4",
"V c #E3E4E5",
"C c #E4E4E4",
"Z c #E4E5E5",
"A c #E5E6E7",
"S c #E7E7E7",
"D c #E8E8E9",
"F c #E9E9E9",
"G c #EAEAEA",
"H c #ECECED",
"J c gray93",
"K c #EFEFEF",
"L c gray95",
"P c #F3F3F3",
"I c #F5F5F6",
"U c #F6F6F6",
"Y c gray97",
"T c #F8F8F8",
"R c #F9F9F9",
"E c gray98",
"W c None",
/* pixels */
"WWWWWMMcMMMWWWWW",
"WWWMdddcdSGGMWWW",
"WWcttWWy$WWKKMWW",
"WMtWWWW$sWWWWLMW",
"Wt4WWW=Xn7WWWIKW",
"M4WWWWo9yMWWWWIM",
"d,WWW$+H7sdWWWEG",
"dWWWW.MIy2MWWWEK",
"dWWWO&AMk7wkWWEK",
"d,W, =>=>>=V5WEG",
"n4W%>5tpdxVGkWYM",
"Wt2WWWWWWWWWWVKW",
"WMtWWWWWWWWWWLcW",
"WWctWWWWWWWKKSWW",
"WWWMdddWMGGGMWWW",
"WWWWWMMcMMMWWWWW"
};
