/* XPM */
static char *_2034dff089a4464f1792f68d443e0a9[] = {
/* columns rows colors chars-per-pixel */
"64 64 49 1 ",
"  c #7E8185",
". c #808387",
"X c #828589",
"o c #86898D",
"O c #888B8F",
"+ c #8B8E91",
"@ c #8E9194",
"# c #919397",
"$ c #93979A",
"% c #979A9D",
"& c #9A9C9F",
"* c #9C9EA1",
"= c #9DA1A3",
"- c #A1A3A6",
"; c #A4A6A9",
": c #A7A9AC",
"> c #A9ACAE",
", c #ADAFB1",
"< c #AEB1B3",
"1 c #B2B4B6",
"2 c #B4B6B8",
"3 c #B7B9BC",
"4 c #BABCBE",
"5 c #BDBFC0",
"6 c #BEC1C2",
"7 c #C5C5C6",
"8 c #C7C7CA",
"9 c #C7C8CA",
"0 c #CBCBCC",
"q c #CDCFD1",
"w c #CED0D1",
"e c #D3D3D4",
"r c #D5D7D8",
"t c #D7D8D9",
"y c #DBDBDC",
"u c #DEDFE0",
"i c #DFE0E1",
"p c #E3E3E3",
"a c #E6E7E8",
"s c #E7E8E8",
"d c #EBECEC",
"f c #EFEFF0",
"g c #EFF0F0",
"h c #F3F4F4",
"j c #F8F7F7",
"k c #F7F7F8",
"l c #F7F8F8",
"z c #FCFCFC",
"x c None",
/* pixels */
"xxxxxxxxxxxxxxxxxxxxxxxxxxsspppppyiyyyxxxxxxxxxxxxxxxxxxxxxxxxxx",
"xxxxxxxxxxxxxxxxxxxxxxdsdapppppupppypiuuttxxxxxxxxxxxxxxxxxxxxxx",
"xxxxxxxxxxxxxxxxxxxxfdsppyyyypyppppppsspiyyyxxxxxxxxxxxxxxxxxxxx",
"xxxxxxxxxxxxxxxxxffspyytyyyiyypiipppsssdsapiytexxxxxxxxxxxxxxxxx",
"xxxxxxxxxxxxxxxxfdpyeetttyyiypipppppppdssddddpywxxxxxxxxxxxxxxxx",
"xxxxxxxxxxxxxxgfpeeeyyytyyyiyypppppsssssdddddfditexxxxxxxxxxxxxx",
"xxxxxxxxxxxxxhsyeeeeeertyyyxxxxxxxxxxdpdddddfdggsyexxxxxxxxxxxxx",
"xxxxxxxxxxxhhpeweeeeeyyxxxxxxxxf&xxxxxxxxsdddffgffiewxxxxxxxxxxx",
"xxxxxxxxxxjgywwwewerrxxxxxxxxxxf-.xxxxxxxxxsfffgfhhde0xxxxxxxxxx",
"xxxxxxxxxjgy0wweewexxxxxxxxxxxz80@xxxxxxxxxxxddgghhhseqxxxxxxxxx",
"xxxxxxxxjfr00ewerxxxxxxxxxxxxzi;d4.xxxxxxxxxxxxfhhhhhde0xxxxxxxx",
"xxxxxxxzhy00000exxxxxxxxxxxxxj2=df%xxxxxxxxxxxxxffhhhjdw0xxxxxxx",
"xxxxxxxjy0e00e0xxxxxxxxxxxxxzr*-az9Xxxxxxxxxxxxxxfhhhjjs0xxxxxxx",
"xxxxxxzp0000e0xxxxxxxxxxxxxxg>*=pzl-xxxxxxxxxxxxxxfhhjjjp0xxxxxx",
"xxxxxzd0000wexxxxxxxxxxxxxxz9***rhzyOxxxxxxxxxxxxxxfhjjzjr0xxxxx",
"xxxxxje7700wxxxxxxxxxxxxxxxs-**xxszz< xxxxxxxxxxxxxxghjjjf0xxxxx",
"xxxxzp70000xxxxxxxxxxxxxxxz5&**xxyhza@xxxxxxxxxxxxxxxgjzjzp8xxxx",
"xxxzhq7800xxxxxxxxxxxxxxxzy-**xxxxpjz6 xxxxxxxxxxxxxxfjjzjhw7xxx",
"xxxzu70800xxxxxxxxxxxxxxxk<%**x99xxfzh&xxxxxxxxxxxxxxxhjjzza8xxx",
"xxzh07700xxxxxxxxxxxxxxxzw*&&xxew8xpjzwXxxxxxxxxxxxxxxxhjzzhw7xx",
"xxzp77700xxxxxxxxxxxxxxxf:***xqiw8xxdzj:xxxxxxxxxxxxxxxgjzzzi7xx",
"xxje7070xxxxxxxxxxxxxxxz7&**x7tdw88xygziOxxxxxxxxxxxxxxxjjzzg0xx",
"xzf77770xxxxxxxxxxxxxxxa=**xxwpgw88xxazz1 xxxxxxxxxxxxxxgzzzze7x",
"xzp7770xxxxxxxxxxxxxxxj3***x8ufhe888xtgzd#xxxxxxxxxxxxxxgjzzzp7x",
"xzr7707xxxxxxxxxxxxxxzy***xxeahke8888xpkz9Xxxxxxxxxxxxxxxhzzzg9x",
"xj07777xxxxxxxxxxxxxxh<&**x9igjzw8888xxdzh*xxxxxxxxxxxxxxhzzzjqx",
"zd7788xxxxxxxxxxxxxxzw&**x7edhzze88888xuhzrXxxxxxxxxxxxxxhjzzzw7",
"za7778xxxxxxxxxxxxxxd;&**x0igzzze88888xxszj> xxxxxxxxxxxxxzzzzy6",
"zp7777xxxxxxxxxxxxxz7%*&x7tfkzzzr888888xtgzp+xxxxxxxxxxxxxzzzza7",
"zy7777xxxxxxxxxxxxxp=**xxqpgzzzze888888xxpzz3 xxxxxxxxxxxxlzzzp7",
"zy7778xxxxxxxxxxxxj2***x7yfkzzzze8888888xefzf$xxxxxxxxxxxxjzzza7",
"zy7777xxxxxxxxxxxzt**&xxwahzzzlsur0888989xyjz9Xxxxxxxxxxxxjzzzp7",
"zy7778xxxxxxxxxxxg>%**x8yglzlgppppuq89888xxazk=xxxxxxxxxxxkzzzs7",
"zy6770xxxxxxxxxxz9***x6rakzhappipipir98888xyhzrOxxxxxxxxxxlzzzs7",
"zu7778xxxxxxxxxxs;**xx9ighsiiiiiuuiiiyq989xxpjz< xxxxxxxxxzzzza7",
"zu7777xxxxxxxxxj5***x7taautyyyyyututtute988xrfzs@xxxxxxxxxlzzzi7",
"zs7777xxxxxxxxzu***xxqyrwqqqwwwwqqqqq9qqq88xxulz5 xxxxxxxxzzzzy7",
"zg7778xxxxxxxxl1***x575253334422515555553536xwdzf%xxxxxxxgjzzze7",
"xh07879xxxxxxze***xx:===========&*-==-%*===-xxyhzwXxxxxxxhzzzjqx",
"xzw7788xxxxxxf:*&*xxxxxxxxxxxxxxxxxxxxxxxxxxxxxpzj-xxxxxxjzzzg7x",
"xzi7778xxxxxz8&*,9rerrrtyyiiipppaaadsdfffggkkhhdhzy+xxxxxjzzzp7x",
"xzf77780xxxxa--4wwwrrrttyyyiiipppaasdddffgghhhkjlzz1 xxxhzzzzr7x",
"xxjw7007xxxk5<9wwwerrtttyyiiiippadddddffghhkkkkzzzzd#xxxhzzzh9xx",
"xxza7770xxjy1567767669999800qqwwqwwwerrtttttyuyuuuip>.xgjzzzp7xx",
"xxzh07070x7-******=*===*==&===&-*=*****==****=*==*=*=@4ljzzhw7xx",
"xxxzy77090xxxxxxxxxxxxxxxxxxxxxxxxxxxxxxxxxxxxxxxxxxxxfjzjza8xxx",
"xxxzh07000xxxxxxxxxxxxxxxxxxxxxxxxxxxxxxxxxxxxxxxxxxxxjjjzje7xxx",
"xxxxji7090qxxxxxxxxxxxxxxxxxxxxxxxxxxxxxxxxxxxxxxxxxxhjjjzp8xxxx",
"xxxxzhw8000wxxxxxxxxxxxxxxxxxxxxxxxxxxxxxxxxxxxxxxxxgjjjzgw7xxxx",
"xxxxxzd000w0wxxxxxxxxxxxxxxxxxxxxxxxxxxxxxxxxxxxxxxfhhjjjy8xxxxx",
"xxxxxxji8000wwxxxxxxxxxxxxxxxxxxxxxxxxxxxxxxxxxxxxfgjjjjp9xxxxxx",
"xxxxxxxjy000w0exxxxxxxxxxxxxxxxxxxxxxxxxxxxxxxxxxfhhhjjd0xxxxxxx",
"xxxxxxxzfy0000eexxxxxxxxxxxxxxxxxxxxxxxxxxxxxxxxfghhhjfw0xxxxxxx",
"xxxxxxxxjfe0ww0eexxxxxxxxxxxxxxxxxxxxxxxxxxxxxxfghjhhfe0xxxxxxxx",
"xxxxxxxxxjfy00e0eeexxxxxxxxxxxxxxxxxxxxxxxxxxdffgghhde0xxxxxxxxx",
"xxxxxxxxxxjfy0eeeeeeyxxxxxxxxxxxxxxxxxxxxxxddfffhhhse0xxxxxxxxxx",
"xxxxxxxxxxxjhiwweeeeetexxxxxxxxxxxxxxxxxxddddfffhfpe0xxxxxxxxxxx",
"xxxxxxxxxxxxxhayeeeeeyyyuuxxxxxxxxxxxxsdaddddfffdywxxxxxxxxxxxxx",
"xxxxxxxxxxxxxxffpeeeeyyeyyyypupppppppassddddffdpewxxxxxxxxxxxxxx",
"xxxxxxxxxxxxxxxffditeteyyyyuyuyippppaasssddddpyeexxxxxxxxxxxxxxx",
"xxxxxxxxxxxxxxxxxhfspyyyyyyyyipippppassdddapyrexxxxxxxxxxxxxxxxx",
"xxxxxxxxxxxxxxxxxxxfdsppyyyuiyipppppapsppyteexxxxxxxxxxxxxxxxxxx",
"xxxxxxxxxxxxxxxxxxxxxxdddssppyypuppppyyyytxxxxxxxxxxxxxxxxxxxxxx",
"xxxxxxxxxxxxxxxxxxxxxxxxxxssppsppypyypxxxxxxxxxxxxxxxxxxxxxxxxxx"
};
