/* XPM */
static char *_af68210966348888c167f4695a897b3[] = {
/* columns rows colors chars-per-pixel */
"128 128 49 1 ",
"  c #7E8286",
". c #808387",
"X c #828589",
"o c #86898D",
"O c #888C8F",
"+ c #8A8E92",
"@ c #8E9195",
"# c #919497",
"$ c #939699",
"% c #96999C",
"& c #9A9C9F",
"* c #9B9DA0",
"= c #9FA2A4",
"- c #A0A3A5",
"; c #A4A6A9",
": c #A7A9AB",
"> c #A9ABAE",
", c #ACAEB0",
"< c #AEB1B3",
"1 c #B1B4B6",
"2 c #B4B7B9",
"3 c #B6B9BB",
"4 c #BABCBE",
"5 c #BDBFC0",
"6 c #BFC1C3",
"7 c #C6C6C6",
"8 c #C7C7CA",
"9 c #C7C9CA",
"0 c #CBCCCC",
"q c #CDCFD0",
"w c #CFD1D2",
"e c #D3D3D3",
"r c #D5D7D8",
"t c #D7D9DA",
"y c #DBDBDC",
"u c #DEDFE1",
"i c #DEE0E1",
"p c #E3E3E4",
"a c #E6E7E8",
"s c #E7E8E8",
"d c #EBECEC",
"f c #F0EFEF",
"g c #EFEFF0",
"h c #EFF0F0",
"j c #F3F3F4",
"k c #F7F7F8",
"l c #F7F8F8",
"z c #FCFCFC",
"x c None",
/* pixels */
"xxxxxxxxxxxxxxxxxxxxxxxxxxxxxxxxxxxxxxxxxxxxxxxxxxxxxxxsppppppppyypyypyypxxxxxxxxxxxxxxxxxxxxxxxxxxxxxxxxxxxxxxxxxxxxxxxxxxxxxxx",
"xxxxxxxxxxxxxxxxxxxxxxxxxxxxxxxxxxxxxxxxxxxxxxxxxxsssssssppppppppppppyyyypyyppxxxxxxxxxxxxxxxxxxxxxxxxxxxxxxxxxxxxxxxxxxxxxxxxxx",
"xxxxxxxxxxxxxxxxxxxxxxxxxxxxxxxxxxxxxxxxxxxxxxdsdsssapaapppppppppyypyyppyyyyyyyyyyxxxxxxxxxxxxxxxxxxxxxxxxxxxxxxxxxxxxxxxxxxxxxx",
"xxxxxxxxxxxxxxxxxxxxxxxxxxxxxxxxxxxxxxxxxxxddddddsspppupypyypypypppppppppppppyyyyyyeyxxxxxxxxxxxxxxxxxxxxxxxxxxxxxxxxxxxxxxxxxxx",
"xxxxxxxxxxxxxxxxxxxxxxxxxxxxxxxxxxxxxxxxfddddddspypyyyypyypppypppyyppppppppdappyyyeyyyeyxxxxxxxxxxxxxxxxxxxxxxxxxxxxxxxxxxxxxxxx",
"xxxxxxxxxxxxxxxxxxxxxxxxxxxxxxxxxxxxxxfdddddppyyyyyyyyyypyyyypyyppppppppdpdpadadpppyyeyerrxxxxxxxxxxxxxxxxxxxxxxxxxxxxxxxxxxxxxx",
"xxxxxxxxxxxxxxxxxxxxxxxxxxxxxxxxxxxxjffddspiyyeeyyyyyyyppypypyppppppppppppdpaaaaddddpyyeeeryxxxxxxxxxxxxxxxxxxxxxxxxxxxxxxxxxxxx",
"xxxxxxxxxxxxxxxxxxxxxxxxxxxxxxxxxxfffffsprreyeyyyyyyyyyyyyyyppyiyppppppppdpddaadsdddddspieeerexxxxxxxxxxxxxxxxxxxxxxxxxxxxxxxxxx",
"xxxxxxxxxxxxxxxxxxxxxxxxxxxxxxxxfffffpyeeyyeyeeyyyyyyyyyyypyiippypyppppappdpddpdddddddfddaieeeeexxxxxxxxxxxxxxxxxxxxxxxxxxxxxxxx",
"xxxxxxxxxxxxxxxxxxxxxxxxxxxxxxfjfffpyeyeeeeyeyyyeyyyypypyppyiiypppppppppdppppdpdsssdsddddfdayeeeeexxxxxxxxxxxxxxxxxxxxxxxxxxxxxx",
"xxxxxxxxxxxxxxxxxxxxxxxxxxxxxfjffpyeeeyeeyeyyeyeyyyyyyyyypyyypuppppppppppdpdpddpsddddddddffffayeweexxxxxxxxxxxxxxxxxxxxxxxxxxxxx",
"xxxxxxxxxxxxxxxxxxxxxxxxxxxjjjjsyeeeeeeeeeeyeyyeyeyyyyyuyyyppyppypppppaappdpppddsdsdddddfddffffpeeeeexxxxxxxxxxxxxxxxxxxxxxxxxxx",
"xxxxxxxxxxxxxxxxxxxxxxxxxxjjjjpreee0eeyeeeyyeyeyyyyyyypuxxxxxxxxxxxxxxxppaafddpddsdddddddffffhhffieewwxxxxxxxxxxxxxxxxxxxxxxxxxx",
"xxxxxxxxxxxxxxxxxxxxxxxxxjjfsyeeeeeeeeeeyeeeyryyeypxxxxxxxxxxxxf-xxxxxxxxxxxpppdaddddddddfdffhhjffse0wexxxxxxxxxxxxxxxxxxxxxxxxx",
"xxxxxxxxxxxxxxxxxxxxxxxkkkfar0qeeeeeeeeeeyyeryryxxxxxxxxxxxxxxxk*.xxxxxxxxxxxxxxaaddddfddffffhfhffjdye00wxxxxxxxxxxxxxxxxxxxxxxx",
"xxxxxxxxxxxxxxxxxxxxxxjjjfiewe0eeeeeeeyeeeeyyxxxxxxxxxxxxxxxxxzk&Xxxxxxxxxxxxxxxxxxasdddddffffhjfjfkfpeew0xxxxxxxxxxxxxxxxxxxxxx",
"xxxxxxxxxxxxxxxxxxxxxkjffye0ee0eeeqeeereeyxxxxxxxxxxxxxxxxxxxxzj- .xxxxxxxxxxxxxxxxxxasffffffffhfjjjjjde0wwxxxxxxxxxxxxxxxxxxxxx",
"xxxxxxxxxxxxxxxxxxxxljjfew000e0eeqeeeeerxxxxxxxxxxxxxxxxxxxxxzze7@.xxxxxxxxxxxxxxxxxxxxpsfdffhfjjffjjjffy0w0xxxxxxxxxxxxxxxxxxxx",
"xxxxxxxxxxxxxxxxxxxkjjdew00e0eeeeeeeeexxxxxxxxxxxxxxxxxxxxxxzzs,y4  xxxxxxxxxxxxxxxxxxxxxadjfhhhfjjfjjljdyw0exxxxxxxxxxxxxxxxxxx",
"xxxxxxxxxxxxxxxxxxkkjse00ee0e0eeeqeeexxxxxxxxxxxxxxxxxxxxxxxzz7&pd% .xxxxxxxxxxxxxxxxxxxxxxsdhhjjfjfjjjjjfy0w0xxxxxxxxxxxxxxxxxx",
"xxxxxxxxxxxxxxxxxkkkae0ee00ee0eeeeexxxxxxxxxxxxxxxxxxxxxxxxzza-=pz0X.xxxxxxxxxxxxxxxxxxxxxxxpfffffjjjjjjjkfy000xxxxxxxxxxxxxxxxx",
"xxxxxxxxxxxxxxxxlkksw00000e00e0eeexxxxxxxxxxxxxxxxxxxxxxxxxzl3&*pzj-..xxxxxxxxxxxxxxxxxxxxxxxxsjfjjfjjjjjjkjy000xxxxxxxxxxxxxxxx",
"xxxxxxxxxxxxxxxllkd000000e0eeeeexxxxxxxxxxxxxxxxxxxxxxxxxxzzt*&*uzzyo.xxxxxxxxxxxxxxxxxxxxxxxxxsffjfjjjjjkjkjy000xxxxxxxxxxxxxxx",
"xxxxxxxxxxxxxxzlzde000w000e000exxxxxxxxxxxxxxxxxxxxxxxxxxzzj,&*=izzz1..xxxxxxxxxxxxxxxxxxxxxxxxxsffjjjjjjjjklfe000xxxxxxxxxxxxxx",
"xxxxxxxxxxxxxxllfe0e0000e00e0exxxxxxxxxxxxxxxxxxxxxxxxxxxzz0***=yzzza@ xxxxxxxxxxxxxxxxxxxxxxxxxxxfjjjjjjlljllfe70xxxxxxxxxxxxxx",
"xxxxxxxxxxxxxzkky70000e0e0e0exxxxxxxxxxxxxxxxxxxxxxxxxxxzzf;****yzzzz7  xxxxxxxxxxxxxxxxxxxxxxxxxxxfjjjjjjjlllldq00xxxxxxxxxxxxx",
"xxxxxxxxxxxxzzku070000000e0exxxxxxxxxxxxxxxxxxxxxxxxxxxxzz6****=elzzzj& Xxxxxxxxxxxxxxxxxxxxxxxxxxxxdjjjjlljllllp007xxxxxxxxxxxx",
"xxxxxxxxxxxlklp07000000e00exxxxxxxxxxxxxxxxxxxxxxxxxxxxzzy-*****wjzzzzwo xxxxxxxxxxxxxxxxxxxxxxxxxxxxdjjjjjkllllky700xxxxxxxxxxx",
"xxxxxxxxxxxljf07070000000exxxxxxxxxxxxxxxxxxxxxxxxxxxxxzj2******9sjzzzl:  xxxxxxxxxxxxxxxxxxxxxxxxxxxxfjjkjllllzlje70xxxxxxxxxxx",
"xxxxxxxxxxzzjy0000000ww0exxxxxxxxxxxxxxxxxxxxxxxxxxxxxzze******&xuhlzzziO xxxxxxxxxxxxxxxxxxxxxxxxxxxxxfjjljkllllzd070xxxxxxxxxx",
"xxxxxxxxxzllp0700000000wxxxxxxxxxxxxxxxxxxxxxxxxxxxxxzzj,&*****xxeajzzzz3  xxxxxxxxxxxxxxxxxxxxxxxxxxxxxfkkkkllllzlp777xxxxxxxxx",
"xxxxxxxxxzlf0707000000wxxxxxxxxxxxxxxxxxxxxxxxxxxxxxxzz9&******xxxtdlzzzs$ Xxxxxxxxxxxxxxxxxxxxxxxxxxxxxsfjkklzllllfe70xxxxxxxxx",
"xxxxxxxxzzly7700700000xxxxxxxxxxxxxxxxxxxxxxxxxxxxxxzza;&*****xxxxwpjzzzz8  xxxxxxxxxxxxxxxxxxxxxxxxxxxxxsjlllllzlzzs077xxxxxxxx",
"xxxxxxxxzzs07007000000xxxxxxxxxxxxxxxxxxxxxxxxxxxxxxzz4&*****xxxxxxtslzzzj= .xxxxxxxxxxxxxxxxxxxxxxxxxxxxxfjkllzlllllt77xxxxxxxx",
"xxxxxxxzzje7777070000xxxxxxxxxxxxxxxxxxxxxxxxxxxxxxzzy=******xxx7xxxuglzzzeo xxxxxxxxxxxxxxxxxxxxxxxxxxxxxxfkllllllzzf070xxxxxxx",
"xxxxxxxzza880707000wxxxxxxxxxxxxxxxxxxxxxxxxxxxxxxxzk1&*****xxx79xxxeajzzzl, .xxxxxxxxxxxxxxxxxxxxxxxxxxxxxakkllzllzzzy80xxxxxxx",
"xxxxxxzzje7777070700xxxxxxxxxxxxxxxxxxxxxxxxxxxxxxzzq*******xxx907xxxyglzzzaO xxxxxxxxxxxxxxxxxxxxxxxxxxxxxxdlzllllzlzj079xxxxxx",
"xxxxxxzza7077070070xxxxxxxxxxxxxxxxxxxxxxxxxxxxxxzzh:&*****xxx8eq8xxxwpjzzzz4 Xxxxxxxxxxxxxxxxxxxxxxxxxxxxxxxjllzllzlzzy77xxxxxx",
"xxxxxzzle707700000xxxxxxxxxxxxxxxxxxxxxxxxxxxxxxxzz7*******xx50tw88xxxtdkzzzf$ .xxxxxxxxxxxxxxxxxxxxxxxxxxxxxdlllzllzzzf077xxxxx",
"xxxxxzzd0777770700xxxxxxxxxxxxxxxxxxxxxxxxxxxxxxzzp-*****&xxx8eie887xxqijzzzz0X.xxxxxxxxxxxxxxxxxxxxxxxxxxxxxxjllllzlzzzy77xxxxx",
"xxxxzzle777777000xxxxxxxxxxxxxxxxxxxxxxxxxxxxxxxzl4******xxx5qype887xxxtpkzzzk- .xxxxxxxxxxxxxxxxxxxxxxxxxxxxxslllllzzzzd077xxxx",
"xxxxzzj0770770070xxxxxxxxxxxxxxxxxxxxxxxxxxxxxxzzt*******xxx9tise8888xxxuglzzzto xxxxxxxxxxxxxxxxxxxxxxxxxxxxxxjzkzzlzzzke77xxxx",
"xxxxzzy777077707xxxxxxxxxxxxxxxxxxxxxxxxxxxxxxxzj,******xxx6quagr8888xxxepjzzzz1 .xxxxxxxxxxxxxxxxxxxxxxxxxxxxxskllzzzzzzp77xxxx",
"xxxzzle777777070xxxxxxxxxxxxxxxxxxxxxxxxxxxxxxzz0*******xx59tpdht78887xxxtdkzzzs@ xxxxxxxxxxxxxxxxxxxxxxxxxxxxxxkllzlzzzzj077xxx",
"xxxzzd777770000xxxxxxxxxxxxxxxxxxxxxxxxxxxxxxzzf;******xxx8wuphht888887xxqphzzzz7 .xxxxxxxxxxxxxxxxxxxxxxxxxxxxxdllzlzzzzze77xxx",
"xxxzzy777077770xxxxxxxxxxxxxxxxxxxxxxxxxxxxxxzl6&******xx69tpdjkt888888xxxedlzzzf% Xxxxxxxxxxxxxxxxxxxxxxxxxxxxxpkllzzzzzzp77xxx",
"xxzzke777777770xxxxxxxxxxxxxxxxxxxxxxxxxxxxxzzp-******xxx8rusgklt8888887xx0uhlzzzwX xxxxxxxxxxxxxxxxxxxxxxxxxxxxxjzllzzzzzj077xx",
"xxzzf777700770xxxxxxxxxxxxxxxxxxxxxxxxxxxxxxzj1&*****xxx6qtpgjllt8888888xxxeajzzzk; .xxxxxxxxxxxxxxxxxxxxxxxxxxxxdlzzzzzzzke77xx",
"xxzza777707077xxxxxxxxxxxxxxxxxxxxxxxxxxxxxzzt*******xxx8ridhjllt88888888xxxydkzzziO xxxxxxxxxxxxxxxxxxxxxxxxxxxxajzlzzzzzzp77xx",
"xxzzt777777707xxxxxxxxxxxxxxxxxxxxxxxxxxxxxzj,&*****xxx7qupgjlzzy88888888xxxepjzzzz2 .xxxxxxxxxxxxxxxxxxxxxxxxxxxxfzzzzzzzzf77xx",
"xzzl057770707xxxxxxxxxxxxxxxxxxxxxxxxxxxxxzz8&&*****xx49epdjklzzt888888888xxxtdjzzzd# xxxxxxxxxxxxxxxxxxxxxxxxxxxxfllzzzzzzj777x",
"xzzj077777777xxxxxxxxxxxxxxxxxxxxxxxxxxxxzza;&*****xxx7wupgjllzzy8888888887xxqufzzzz8  xxxxxxxxxxxxxxxxxxxxxxxxxxxalzlzzzzzze77x",
"xzzs777777770xxxxxxxxxxxxxxxxxxxxxxxxxxxxzz4&&****xxx59tpdhkzzzzt8888888888xxxesjzzzj*  xxxxxxxxxxxxxxxxxxxxxxxxxxxjlzzzzzzzt57x",
"xzzy677777070xxxxxxxxxxxxxxxxxxxxxxxxxxxzzu-&*****xxx7eusfjlzzzzt88888888887xx9yglzzzeX xxxxxxxxxxxxxxxxxxxxxxxxxxxhzzzzzzzzp77x",
"zzzt777770077xxxxxxxxxxxxxxxxxxxxxxxxxxxzj1&*****xxx5qypfjlzzzzzy88888888888xxxepjzzzl, Xxxxxxxxxxxxxxxxxxxxxxxxxxxflzzzzzzzs777",
"zzle56777777xxxxxxxxxxxxxxxxxxxxxxxxxxxzze&******xxx8eidjjlzzzzzt888888888888xxxtflzzzpO xxxxxxxxxxxxxxxxxxxxxxxxxxfzzzzzzzzj775",
"zzlq77777777xxxxxxxxxxxxxxxxxxxxxxxxxxzzj:******xxx6qupghklzzzzzy888888888888xxxqijlzzz4 .xxxxxxxxxxxxxxxxxxxxxxxxxslzzzzzzzl077",
"zzj957777770xxxxxxxxxxxxxxxxxxxxxxxxxxzz7&******xx59tidhklzzzzzzy8888888888888xxxeakzzzg$ .xxxxxxxxxxxxxxxxxxxxxxxxallzzzzzzle75",
"zzj767777777xxxxxxxxxxxxxxxxxxxxxxxxxzza-&*****xxx7quagjlzzzzzzzy88888888888887xx0ugzzzz9X.xxxxxxxxxxxxxxxxxxxxxxxxxjzzzzzzzle57",
"zzf776677770xxxxxxxxxxxxxxxxxxxxxxxxxzl3&*****xxx59tidhkzzzzzzzzy88880888888888xxxepjzzzj= .xxxxxxxxxxxxxxxxxxxxxxxxjzzzzzzzle66",
"zzf777777077xxxxxxxxxxxxxxxxxxxxxxxxzzt=******xxx7eusgjlzzzzzzzzt888888888888887xxxyflzzzto.xxxxxxxxxxxxxxxxxxxxxxxxjzzzzzzzze77",
"zzs777777707xxxxxxxxxxxxxxxxxxxxxxxxzj<&*****xxx50tighkzzzzzzzzky088888888888888xxxqpjzzzz, Xxxxxxxxxxxxxxxxxxxxxxxxjzzzzzzzze76",
"zzj777777707xxxxxxxxxxxxxxxxxxxxxxxzzq&******xx48rudgklzzzzzzzjpuuw88888888888888xxxedjzzzaO xxxxxxxxxxxxxxxxxxxxxxxjzzzzzzzze67",
"zzf757777777xxxxxxxxxxxxxxxxxxxxxxzzf:&*****xxx6qtpghllzzzzzlfppppptq888808888889xxx9ujzzzz6.Xxxxxxxxxxxxxxxxxxxxxxxjzzzzzzzze57",
"zzd757777707xxxxxxxxxxxxxxxxxxxxxxzz6&******xx59tidhklzzzzzhaiiappppuw998888888888xxxeajzzzh%  xxxxxxxxxxxxxxxxxxxxxhlzzzzzzzt77",
"zzd777777777xxxxxxxxxxxxxxxxxxxxxzzp-******xxx6qupgjlzzzzlsiiapippppairw88888888887xx8yfkzzzwX xxxxxxxxxxxxxxxxxxxxxjzzzzzzzzt57",
"zzf777777077xxxxxxxxxxxxxxxxxxxxxzj2&*****xxx59tidhklzzlgiiaaippuapupppurq888888888xxxqpjzzzl; .xxxxxxxxxxxxxxxxxxxxhzzzzzzzze76",
"zzd775777707xxxxxxxxxxxxxxxxxxxxzzt*******xxx8wuagjlzzjspiiiaipppupppupputq888888888xxxtflzzzyo xxxxxxxxxxxxxxxxxxxxjzzzzzzzle76",
"zzj757777077xxxxxxxxxxxxxxxxxxxxzj,******xxx69yadhllldiiipipiiiiupupupuuupurq8888888xxx0ihlzzz1 .xxxxxxxxxxxxxxxxxxxjzzzzzzzze76",
"zzj977777707xxxxxxxxxxxxxxxxxxxzz0&******xx46rishklgiuiiiiuiiiiiuuuuuuuuuuuutq8888888xxxeskzzzs# xxxxxxxxxxxxxxxxxxxkzzzzzzzle77",
"zzj867777777xxxxxxxxxxxxxxxxxxzzs;******xxx6qypghgputuuutuyuituiuuuuuuuuuuutuur8888887xx9uflzzz7..xxxxxxxxxxxxxxxxxplzzzzzzzl057",
"zzj077777707xxxxxxxxxxxxxxxxxxzl5&******xx48eidgatttttttttttttrtrrrtrrrrrrttrrtrq88888xxxwpjzzzj* Xxxxxxxxxxxxxxxxxslzzzzzzzl057",
"zzle77777077xxxxxxxxxxxxxxxxxzzi=&***&*xxx6wyaiteewwrwrweeeeeewwewrwreeerwwwrwrweq99887xx8tdlzzzeX xxxxxxxxxxxxxxxxslzzzzzzzj977",
"zzze777777700xxxxxxxxxxxxxxxxzj1&&****xxx49tutq09qqq9q9q0qq99qqqqq9q99qq9qqq9q9qq099888xxxqpjzzzl: Xxxxxxxxxxxxxxxxfzzzzzzzzf775",
"xzzp677777077xxxxxxxxxxxxxxxzze*******xxx7we85566666666666666666666666665555666666667888xxxeslzzziO xxxxxxxxxxxxxxxjzzzzzzzzp77x",
"xzzs757777770xxxxxxxxxxxxxxxzj,&*****xxx665111111111111111121111111111112221111111111156xxx9uhlzzz3 .xxxxxxxxxxxxxxjzlzzzzzzt77x",
"xzzf767777779xxxxxxxxxxxxxxzz7&&*****xx21;=======;=;=;=========;=;====;=;==;;;====;===;:3xxxqajzzzf$ xxxxxxxxxxxxxallzzzzzzze57x",
"xzzl077777709xxxxxxxxxxxxxzza;&&****xxxxxxxxxxxxxxxxxxxxxxxxxxxxxxxxxxxxxxxxxxxxxxxxxxxxxxxx8ydlzzz0X xxxxxxxxxxxxdzzzzzzzzj077x",
"xzzze777708788xxxxxxxxxxxxzl4&&=****xxxxxxxxxxxxxxxxxxxxxxxxxxxxxxxxxxxxxxxxxxxxxxxxxxxxxxxxxqpjzzzj= .xxxxxxxxxxxjllzzzzzzd777x",
"xxzlp777777770xxxxxxxxxxxzzt=&&&**&xxxxxxxxxxxxxxxxxxxxxxxxxxxxxxxxxxxxxxxxxxxxxxxxxxxxxxxxxx7rslzzztX xxxxxxxxxxxjlzzzzzzzp77xx",
"xxzzd077770777xxxxxxxxxxxzj1&&&&&-2xxxxxxxxxxxxxxxxxxxxxxxxxxxxxxxxxxxxxxxxxxxxxxxxxxxxxxxxxxstpjzzzl, .xxxxxxxxxslzzzzzzzze77xx",
"xxzzlq677777700xxxxxxxxxzzw*=&&=,8wewrtrrtrrttyttuiuiiuuiiipipappaassssddddddfdhhhgjjjjjjjlklljfdjzzzaO xxxxxxxxxjzllzzzzzj077xx",
"xxxzzy777777700xxxxxxxxzzd:&&&;5wwwwrwwteetrtttyuttuyiyuiipiipipppapsssdsddddgghhhjhhjjjjkkjlkzzljlzzz5 Xxxxxxxxxkzllzzzzzs77xxx",
"xxxzzd777070770xxxxxxxxzz7&&=19qwwwewwrwrtttttttttutiyiiiiippiaaaaaasssddsdddddhghghjhjjjjjkkkkllzzzzzg% xxxxxxxdklzzzzzzzy77xxx",
"xxxzzlq777077700xxxxxxzzp=*:6qwqwwweeewreetttttyyyyuyuypiipipppppaaasssddddddggdhhhhhhjjjjlkkklllzlzzzzqX xxxxxxjlzlzzzzzjq77xxx",
"xxxxzzy777777007xxxxxxzk2=39qqqqwwwwrwrwttetttttyyuyuyuyiiiiipipapaasspdddddddgghhhhjjjjjjjlkkzzzlzzzzzl; .xxxxsklllzlzzza77xxxx",
"xxxxzzj9070770700xxxxzzt170qwwwwweeewrerettttyyyyyiyuuupiippppppaaasdddddddhdhgghjhjjjkjjlkzlzllzzzzzzzzto.xxxxflllzllzzzr77xxxx",
"xxxxzzle77777707qxxxxzp1<11111211222332335333344444444456555666666666666686686776899688988999909990900q09%X.xxskzlzlzzzzd077xxxx",
"xxxxxzza7777770007xxd7-&&*&&&&*&&&*&&&**&&*****&&&&*&&&*&&&*&&&&%%&&&&&&&&&&&&&&&&&&*&&%&&&&&&&&*&*&&%&&&&$oxxjkzllzlzzly87xxxxx",
"xxxxxzzke707700700xx1&&*****************&&*********************-****&=&&&&=&**&***************&***********&&$ykllllllzzjq77xxxxx",
"xxxxxxzzp7777070070xxxxxxxxxxxxxxxxxxxxxxxxxxxxxxxxxxxxxxxxxxxxxxxxxxxxxxxxxxxxxxxxxxxxxxxxxxxxxxxxxxxxxxxxxxjlzlllzzzzp77xxxxxx",
"xxxxxxzzje777770000xxxxxxxxxxxxxxxxxxxxxxxxxxxxxxxxxxxxxxxxxxxxxxxxxxxxxxxxxxxxxxxxxxxxxxxxxxxxxxxxxxxxxxxxxfjlllzlzlzjw70xxxxxx",
"xxxxxxzzzp7770707000xxxxxxxxxxxxxxxxxxxxxxxxxxxxxxxxxxxxxxxxxxxxxxxxxxxxxxxxxxxxxxxxxxxxxxxxxxxxxxxxxxxxxxxakllzlllzkzp770xxxxxx",
"xxxxxxxzzfe707070000qxxxxxxxxxxxxxxxxxxxxxxxxxxxxxxxxxxxxxxxxxxxxxxxxxxxxxxxxxxxxxxxxxxxxxxxxxxxxxxxxxxxxxxjkllllzllzj077xxxxxxx",
"xxxxxxxxzzs0770708000xxxxxxxxxxxxxxxxxxxxxxxxxxxxxxxxxxxxxxxxxxxxxxxxxxxxxxxxxxxxxxxxxxxxxxxxxxxxxxxxxxxxxdkkklllzzlzy70xxxxxxxx",
"xxxxxxxxzlle707008000qxxxxxxxxxxxxxxxxxxxxxxxxxxxxxxxxxxxxxxxxxxxxxxxxxxxxxxxxxxxxxxxxxxxxxxxxxxxxxxxxxxxsfkklzllllzd077xxxxxxxx",
"xxxxxxxxxzzd077000000e0xxxxxxxxxxxxxxxxxxxxxxxxxxxxxxxxxxxxxxxxxxxxxxxxxxxxxxxxxxxxxxxxxxxxxxxxxxxxxxxxxxflkklzlllllr77xxxxxxxxx",
"xxxxxxxxxzlzu00070000000xxxxxxxxxxxxxxxxxxxxxxxxxxxxxxxxxxxxxxxxxxxxxxxxxxxxxxxxxxxxxxxxxxxxxxxxxxxxxxxxfllkkllllzlp700xxxxxxxxx",
"xxxxxxxxxxzlje7700000000exxxxxxxxxxxxxxxxxxxxxxxxxxxxxxxxxxxxxxxxxxxxxxxxxxxxxxxxxxxxxxxxxxxxxxxxxxxxxxfjjjkkllllzf077xxxxxxxxxx",
"xxxxxxxxxxxzzdq0070000e0e0xxxxxxxxxxxxxxxxxxxxxxxxxxxxxxxxxxxxxxxxxxxxxxxxxxxxxxxxxxxxxxxxxxxxxxxxxxxxsjjjlljllzlje00xxxxxxxxxxx",
"xxxxxxxxxxxzllp0700000e000exxxxxxxxxxxxxxxxxxxxxxxxxxxxxxxxxxxxxxxxxxxxxxxxxxxxxxxxxxxxxxxxxxxxxxxxxxdjjjkkjlllllp007xxxxxxxxxxx",
"xxxxxxxxxxxxlljt70000000ee00xxxxxxxxxxxxxxxxxxxxxxxxxxxxxxxxxxxxxxxxxxxxxxxxxxxxxxxxxxxxxxxxxxxxxxxxdjjjjjjllllls070xxxxxxxxxxxx",
"xxxxxxxxxxxxxzzje70000e0000eexxxxxxxxxxxxxxxxxxxxxxxxxxxxxxxxxxxxxxxxxxxxxxxxxxxxxxxxxxxxxxxxxxxxxxsjjjjjjkklllfe70xxxxxxxxxxxxx",
"xxxxxxxxxxxxxllzfe000000e0w0eexxxxxxxxxxxxxxxxxxxxxxxxxxxxxxxxxxxxxxxxxxxxxxxxxxxxxxxxxxxxxxxxxxxxfjjjjjkfkkllfe000xxxxxxxxxxxxx",
"xxxxxxxxxxxxxxzllde00e0000e0e0exxxxxxxxxxxxxxxxxxxxxxxxxxxxxxxxxxxxxxxxxxxxxxxxxxxxxxxxxxxxxxxxxxdjjjjkjjkkjkfy000xxxxxxxxxxxxxx",
"xxxxxxxxxxxxxxxljja000000e0e0eeexxxxxxxxxxxxxxxxxxxxxxxxxxxxxxxxxxxxxxxxxxxxxxxxxxxxxxxxxxxxxxxpfjfjjjjjjlkljyw00xxxxxxxxxxxxxxx",
"xxxxxxxxxxxxxxxxllkp000e00e0eeeeexxxxxxxxxxxxxxxxxxxxxxxxxxxxxxxxxxxxxxxxxxxxxxxxxxxxxxxxxxxxxdfhfjhjjjjjkkjp00qxxxxxxxxxxxxxxxx",
"xxxxxxxxxxxxxxxxxljjpe00e00e00e0eeexxxxxxxxxxxxxxxxxxxxxxxxxxxxxxxxxxxxxxxxxxxxxxxxxxxxxxxxxxdfhjfjjjjjjjjjiw00xxxxxxxxxxxxxxxxx",
"xxxxxxxxxxxxxxxxxxlkjpe0e00eee0eee0exxxxxxxxxxxxxxxxxxxxxxxxxxxxxxxxxxxxxxxxxxxxxxxxxxxxxxxddffffjjfjjjjjjpw00xxxxxxxxxxxxxxxxxx",
"xxxxxxxxxxxxxxxxxxxkkjpe00e00e0eeeeetyxxxxxxxxxxxxxxxxxxxxxxxxxxxxxxxxxxxxxxxxxxxxxxxxxxxadffffjhfjfjjjjjye0wxxxxxxxxxxxxxxxxxxx",
"xxxxxxxxxxxxxxxxxxxxkkfde0e0e0eeeeeeeteexxxxxxxxxxxxxxxxxxxxxxxxxxxxxxxxxxxxxxxxxxxxxxxxddfffffjjjjjjjjft0e0xxxxxxxxxxxxxxxxxxxx",
"xxxxxxxxxxxxxxxxxxxxxjfffy0e0e0e0eeeeeeyyyxxxxxxxxxxxxxxxxxxxxxxxxxxxxxxxxxxxxxxxxxxxxddddfffffjfhhjjjdt000xxxxxxxxxxxxxxxxxxxxx",
"xxxxxxxxxxxxxxxxxxxxxxkkjdywwwwe0eeeeeyeeeyexxxxxxxxxxxxxxxxxxxxxxxxxxxxxxxxxxxxxxxasdfddffffffjjffffpewqqxxxxxxxxxxxxxxxxxxxxxx",
"xxxxxxxxxxxxxxxxxxxxxxxjkjfpew0eeeeeeeeeeyeyeyyxxxxxxxxxxxxxxxxxxxxxxxxxxxxxxxxxpdfdddddfdfdffjfffjfpewwwxxxxxxxxxxxxxxxxxxxxxxx",
"xxxxxxxxxxxxxxxxxxxxxxxxjkjfdeeeeweeeeeeeyeyeyeyyuxxxxxxxxxxxxxxxxxxxxxxxxxxxaassddddddddfdffffffjsywwqwxxxxxxxxxxxxxxxxxxxxxxxx",
"xxxxxxxxxxxxxxxxxxxxxxxxxxjjfdpeeeeeeeeyeeeyyeyyyyyyyppxxxxxxxxxxxxxxxxxxaaassssssdddddddfdffffffpee0exxxxxxxxxxxxxxxxxxxxxxxxxx",
"xxxxxxxxxxxxxxxxxxxxxxxxxxxjjffdyeeeeereeyeyyeeyyyyyypypayypyppppppippppppapssssdddsddddfdfffffdyee0exxxxxxxxxxxxxxxxxxxxxxxxxxx",
"xxxxxxxxxxxxxxxxxxxxxxxxxxxxxjfffpeeeeeeeeeyeyyeyyyyyyyyppyypyypipppppppdpddsssspddddddfdfdffdyeeeexxxxxxxxxxxxxxxxxxxxxxxxxxxxx",
"xxxxxxxxxxxxxxxxxxxxxxxxxxxxxxjfffdpyeereeyeyyeyyyyyyypyypyyypypiipppppppadpassddddadddddffdiye0eexxxxxxxxxxxxxxxxxxxxxxxxxxxxxx",
"xxxxxxxxxxxxxxxxxxxxxxxxxxxxxxxxfffffpyeyeeyyeyyyyeyyyyyyyyppyppippppppppapdpdsspddddddffspeeeeexxxxxxxxxxxxxxxxxxxxxxxxxxxxxxxx",
"xxxxxxxxxxxxxxxxxxxxxxxxxxxxxxxxxxffffdpyyeeyyeyyyyyyyyypyyyppyppyppppppappdpdpssddddddpiyeeerxxxxxxxxxxxxxxxxxxxxxxxxxxxxxxxxxx",
"xxxxxxxxxxxxxxxxxxxxxxxxxxxxxxxxxxxxfffddapyeeyyyeyyyyypyypypypyppppppdppddsdpddsdddppyyeerrxxxxxxxxxxxxxxxxxxxxxxxxxxxxxxxxxxxx",
"xxxxxxxxxxxxxxxxxxxxxxxxxxxxxxxxxxxxxxfffddappyyyyyyyyyypypyyyppppppppppppdppdpdaapiyyeyyexxxxxxxxxxxxxxxxxxxxxxxxxxxxxxxxxxxxxx",
"xxxxxxxxxxxxxxxxxxxxxxxxxxxxxxxxxxxxxxxxddddddappyyyyypyyyyyppyppyypppppdppddspypyereyeexxxxxxxxxxxxxxxxxxxxxxxxxxxxxxxxxxxxxxxx",
"xxxxxxxxxxxxxxxxxxxxxxxxxxxxxxxxxxxxxxxxxxxfffdadaaapppypyyppppyppppppppppppyyyyyrryyxxxxxxxxxxxxxxxxxxxxxxxxxxxxxxxxxxxxxxxxxxx",
"xxxxxxxxxxxxxxxxxxxxxxxxxxxxxxxxxxxxxxxxxxxxxxddaaaapdpppppppypppyyppypyyyyyyyyyyyxxxxxxxxxxxxxxxxxxxxxxxxxxxxxxxxxxxxxxxxxxxxxx",
"xxxxxxxxxxxxxxxxxxxxxxxxxxxxxxxxxxxxxxxxxxxxxxxxxxfaafppppppppppyppyypyyyypupyxxxxxxxxxxxxxxxxxxxxxxxxxxxxxxxxxxxxxxxxxxxxxxxxxx",
"xxxxxxxxxxxxxxxxxxxxxxxxxxxxxxxxxxxxxxxxxxxxxxxxxxxxxxpdpppppyppppyppypypyxxxxxxxxxxxxxxxxxxxxxxxxxxxxxxxxxxxxxxxxxxxxxxxxxxxxxx"
};
